<svg width="320" height="88" viewBox="0 0 320 88" fill="none" xmlns="http://www.w3.org/2000/svg">
  <rect x="4" y="8" width="72" height="72" rx="24" fill="url(#iconGradient)"/>
  <path d="M42.7 27.5C37.2 27.5 32.8 31.9 32.8 37.4C32.8 45.3 42.7 54.9 42.7 54.9C42.7 54.9 52.6 45.3 52.6 37.4C52.6 31.9 48.2 27.5 42.7 27.5Z" fill="white"/>
  <circle cx="42.7" cy="37.4" r="3.7" fill="#0EA5E9"/>
  <path d="M25.5 48.8C29.7 56.6 37.9 61.8 47.2 61.8C55.1 61.8 62 58.1 66.5 52.3" stroke="white" stroke-width="5.2" stroke-linecap="round"/>
  <path d="M23.6 36.5C27.9 28.9 36 23.8 45.2 23.8C50.8 23.8 56 25.7 60.1 28.9" stroke="white" stroke-width="5.2" stroke-linecap="round"/>
  
  <text x="92" y="42" font-family="Noto Sans Bengali, Hind Siliguri, Arial, sans-serif" font-size="34" font-weight="900" letter-spacing="-1.2" fill="url(#textGradient)">
    সেবাসাথী
  </text>
  <text x="94" y="63" font-family="Noto Sans Bengali, Hind Siliguri, Arial, sans-serif" font-size="14" font-weight="700" fill="#64748B">
    ঢাকায় চিকিৎসা সহায়তা
  </text>

  <defs>
    <linearGradient id="iconGradient" x1="4" y1="8" x2="76" y2="80" gradientUnits="userSpaceOnUse">
      <stop stop-color="#2563EB"/>
      <stop offset="1" stop-color="#10B981"/>
    </linearGradient>
    <linearGradient id="textGradient" x1="92" y1="24" x2="244" y2="55" gradientUnits="userSpaceOnUse">
      <stop stop-color="#2563EB"/>
      <stop offset="0.52" stop-color="#0284C7"/>
      <stop offset="1" stop-color="#10B981"/>
    </linearGradient>
  </defs>
</svg>